<svg width="131" height="33" viewBox="0 0 131 33" fill="none" xmlns="http://www.w3.org/2000/svg">
<path d="M14.4254 0.436793C12.7353 0.628218 10.2002 1.42337 8.75787 2.21852C4.88241 4.3242 2.25992 7.60788 0.94867 11.9812C0.68642 12.8353 0.380463 15.1618 0.395032 16.2515C0.395032 17.2086 0.68642 19.5499 0.861253 20.1094C0.94867 20.3745 1.13807 21.0077 1.29834 21.4936C1.56058 22.3182 2.82812 24.9098 3.04666 25.0865C3.09037 25.1307 3.32348 25.4252 3.54202 25.7638C4.08109 26.5737 5.49432 28.0168 6.55789 28.8414C7.37378 29.4745 9.67574 30.8145 9.96713 30.8292C10.04 30.8292 10.0545 30.2697 10.0108 29.5334C9.90885 27.899 10.2148 25.6755 10.8704 23.4078C10.987 23.025 11.0744 22.5243 11.0744 22.3035C11.0744 22.0826 11.1327 21.847 11.2055 21.7734C11.2784 21.685 11.4095 21.258 11.4823 20.8162C11.5698 20.3745 11.7155 19.6971 11.8174 19.3143C11.9631 18.74 11.9486 18.5191 11.7446 17.9007C11.4532 16.9583 11.4386 15.4269 11.73 14.6906C12.4148 12.9383 13.1724 12.2757 14.4545 12.2757C15.9989 12.2757 16.7419 13.4537 16.4505 15.4269C16.3194 16.3251 15.9552 17.7387 15.722 18.1804C15.6638 18.313 15.5618 18.6811 15.5181 18.9903C15.4598 19.3143 15.3432 19.7707 15.2704 20.0211C15.0664 20.5953 15.4598 21.7145 15.9843 22.1415C16.4797 22.5391 17.5141 22.6569 18.4611 22.436C19.1313 22.2887 19.4081 22.112 20.1074 21.4347C20.9379 20.6101 21.5644 19.6529 21.5644 19.1965C21.5644 19.0639 21.6372 18.8872 21.7246 18.7989C22.1326 18.3866 22.3511 15.1765 22.0452 13.8218C21.7101 12.3346 20.6756 10.8768 19.3353 10.0228C17.9949 9.15401 15.2267 8.90368 13.5221 9.49268C12.3274 9.90498 11.2638 10.5971 10.579 11.4069C9.96713 12.1285 9.32608 13.3065 9.32608 13.7188C9.32608 13.866 9.25323 14.0574 9.16581 14.1458C9.0784 14.2341 8.97641 14.7937 8.9327 15.3974C8.85986 16.2956 8.91813 16.7079 9.18038 17.5914C9.35522 18.1952 9.67574 18.902 9.86514 19.167C10.2585 19.6971 10.2585 19.9033 9.89428 21.3169C9.7923 21.6997 9.61746 22.0531 9.51548 22.0973C8.59761 22.4507 6.73272 20.2272 6.10624 18.0185C5.87313 17.1791 5.85856 14.19 6.09167 13.3065C6.19365 12.9383 6.36849 12.4377 6.48504 12.1726C6.6016 11.9223 6.70358 11.672 6.70358 11.6131C6.70358 11.5542 6.99497 11.0535 7.35921 10.5087C9.25323 7.6226 12.3274 6.0912 16.2174 6.0912C17.1061 6.0912 18.024 6.1501 18.2717 6.22373C20.2823 6.8569 20.8213 7.06305 21.6081 7.53425C23.1379 8.46193 24.2451 9.72828 25.3524 11.8487C25.4253 11.9812 25.5273 12.3346 25.571 12.6291C25.6292 12.9236 25.7312 13.2034 25.8041 13.2476C25.8769 13.2917 25.9352 14.2489 25.9352 15.3827C25.9352 17.4295 25.7895 18.2541 25.1776 19.9327C24.4928 21.7734 22.7299 23.8054 21.1273 24.6006C20.2094 25.0423 18.4902 25.5282 17.8055 25.5282C16.8876 25.5282 15.081 24.7625 14.5856 24.1441C14.3525 23.8643 14.134 23.9674 14.134 24.365C14.134 24.5122 14.0757 24.7625 13.9883 24.9098C13.9154 25.0423 13.7843 25.4546 13.7115 25.8227C13.289 27.7664 12.6916 29.342 11.7737 30.8145C11.4969 31.271 11.73 31.536 12.4876 31.6391C12.8664 31.698 13.3764 31.8011 13.6095 31.8747C14.1923 32.0661 17.3538 32.0367 18.4174 31.8453C19.379 31.6686 20.9379 31.2268 21.6372 30.9323C26.0372 29.1064 29.3736 25.3957 30.8159 20.669C31.5881 18.151 31.6318 15.2207 30.9325 12.2757C30.6994 11.3186 30.6265 11.0977 30.0001 9.62521C29.0968 7.47535 27.057 4.95737 24.9882 3.41125C23.2107 2.086 21.4624 1.32029 18.7379 0.657668C17.9803 0.480968 15.285 0.333718 14.4254 0.436793V0.436793ZM53.282 5.75253C52.7138 5.84088 51.8105 6.78328 51.5773 7.51953C51.3297 8.32941 51.5773 9.19818 52.2767 9.87553C53.821 11.3922 56.5018 9.96388 56.1667 7.78458C55.9627 6.40043 54.7098 5.51693 53.282 5.75253ZM37.4013 6.6213C37.2702 6.76855 37.2702 24.5269 37.4159 24.7331C37.4887 24.8509 38.1152 24.8951 39.339 24.8803L41.1602 24.8656L41.2331 21.8764C41.2913 19.4468 41.3496 18.8578 41.5245 18.7547C41.641 18.6811 42.6317 18.6075 43.7244 18.6075C46.1138 18.6075 47.1191 18.4308 48.2118 17.8418C49.6396 17.0613 50.4701 15.9422 50.9217 14.1605C51.1985 13.0414 51.1985 12.2315 50.9072 11.083C50.6449 10.0522 50.5283 9.80191 49.9019 8.96258C49.1297 7.9171 48.3429 7.34283 47.0608 6.88635C46.3469 6.65075 45.7496 6.60658 41.8887 6.5624C39.4847 6.53295 37.4596 6.5624 37.4013 6.6213V6.6213ZM45.3999 10.2878C46.3761 10.5971 46.8569 11.0388 47.0754 11.834C47.3522 12.8794 47.1482 13.8513 46.5363 14.4403C45.8661 15.0735 45.2688 15.2207 43.3165 15.2207C42.0344 15.2207 41.641 15.1765 41.4662 14.9851C41.2768 14.8084 41.2331 14.3814 41.2331 12.7027C41.2331 10.0522 41.2185 10.067 43.2436 10.067C44.1178 10.067 44.9628 10.1553 45.3999 10.2878ZM70.9547 9.41906C70.9547 10.4351 70.8818 11.3922 70.809 11.5542C70.707 11.7456 70.503 11.834 70.1533 11.834C69.8911 11.834 69.6434 11.8929 69.6143 11.9812C69.5997 12.0548 69.5997 12.5702 69.6434 13.115C69.7163 14.0869 69.7308 14.1016 70.1679 14.2047C70.4156 14.2489 70.6924 14.3372 70.7798 14.3961C70.9109 14.4697 70.9547 15.633 70.9547 18.578C70.9547 22.5391 70.9692 22.6863 71.2897 23.2753C71.9599 24.5269 73.0089 24.9687 75.1361 24.9098L76.5639 24.8656L76.6076 23.4373L76.6513 21.9942H76.2871C75.7334 21.9942 74.9175 21.5525 74.8301 21.1991C74.7864 21.0224 74.7427 19.4615 74.7427 17.7092C74.7427 15.2943 74.7864 14.4845 74.9321 14.3667C75.0341 14.2783 75.442 14.19 75.8354 14.1605L76.5639 14.1163V11.9076L75.7626 11.8634C75.3255 11.834 74.9175 11.7309 74.8593 11.6425C74.801 11.5395 74.7427 10.5823 74.7427 9.50741V7.5637H70.9547V9.41906ZM125.109 7.65205C125.051 7.71095 125.007 8.63863 125.007 9.71356C125.007 11.8045 124.993 11.834 124.191 11.834C123.827 11.834 123.827 11.8487 123.871 12.9678C123.914 14.0869 123.929 14.1163 124.308 14.1605C124.512 14.19 124.759 14.293 124.832 14.3814C124.92 14.4845 125.007 16.2662 125.051 18.5338C125.095 20.7131 125.167 22.701 125.226 22.9366C125.401 23.5845 126.304 24.4091 127.163 24.6889C128.125 25.0129 130.573 25.0423 130.82 24.7331C130.937 24.6006 130.981 24.0705 130.951 23.3048L130.908 22.0679L130.398 21.9795C129.844 21.8912 129.218 21.5967 129.057 21.3463C128.999 21.258 128.941 19.6529 128.941 17.7829C128.941 13.9396 128.853 14.19 130.121 14.19C130.951 14.19 131.024 14.0427 130.951 12.7027L130.908 11.9076L129.961 11.834L129.014 11.7603L128.941 9.69883L128.868 7.63733L127.032 7.59315C126.027 7.57843 125.167 7.60788 125.109 7.65205V7.65205ZM63.7428 11.4806C63.0289 11.672 62.1984 12.1579 61.6448 12.7322C60.9746 13.439 60.7998 13.3948 60.7269 12.4966L60.6832 11.9076H57.0409V24.8656L58.8766 24.8951C60.6832 24.9392 60.7269 24.9245 60.8143 24.6006C60.8581 24.4239 60.9018 22.5538 60.9018 20.4334C60.9018 16.2367 60.9163 16.1189 61.7759 15.2943C62.1547 14.9262 62.3587 14.8526 63.1746 14.8084L64.1216 14.7495L64.6898 15.3532C65.36 16.06 65.2872 15.3827 65.3454 21.4789C65.36 23.0986 65.3746 24.5269 65.3891 24.6742C65.4183 24.8803 65.6514 24.9098 67.2832 24.8803L69.1335 24.8656V14.5286L68.711 13.6893C67.9825 12.2315 66.8607 11.5395 65.1415 11.4511C64.5295 11.4364 63.9031 11.4364 63.7428 11.4806V11.4806ZM81.9546 11.4806C80.3811 11.9076 79.6234 12.3346 78.6473 13.3065C77.3361 14.6464 76.7387 16.2073 76.7387 18.313C76.7533 22.009 79.0407 24.7478 82.4208 25.0718C85.3055 25.3515 87.5346 24.4975 88.9624 22.5685C89.1664 22.2887 89.6035 21.3905 89.6035 21.2285C89.6035 21.1696 88.7585 21.1107 87.7386 21.1107H85.8737L85.4366 21.5672C84.9267 22.0973 84.2128 22.436 83.5572 22.436C82.9016 22.436 81.8963 21.9648 81.4301 21.4641C81.0804 21.0665 80.5705 19.918 80.5705 19.5204C80.5705 19.3879 81.634 19.3437 85.0578 19.3437C87.5201 19.3437 89.6035 19.2848 89.7055 19.2259C89.924 19.0787 89.72 16.7374 89.3995 15.8833C88.7439 14.1016 87.5055 12.5997 86.2525 12.0696C85.8883 11.9223 85.4658 11.7309 85.3201 11.6573C85.0141 11.4953 82.4208 11.3628 81.9546 11.4806V11.4806ZM84.7956 14.7053C85.3638 15.1029 85.8592 16.0453 85.7863 16.5754C85.7426 16.9141 85.7135 16.9141 83.2512 16.9583C80.4102 17.0024 80.3956 16.9877 80.8473 15.9275C81.1678 15.1913 81.8089 14.5286 82.4062 14.3372C83.091 14.1163 84.1982 14.293 84.7956 14.7053ZM103.517 11.4806C101.827 11.937 100.647 12.688 99.7292 13.8513C99.365 14.3225 99.0736 14.7642 99.0736 14.8526C99.0736 14.9262 98.9716 15.1913 98.8405 15.4416C98.7094 15.6772 98.52 16.4134 98.418 17.0761C97.9081 20.2272 99.3067 23.1722 101.929 24.4975L102.934 25.0129H105.047C107.232 25.0129 107.422 24.9687 108.762 24.2472C109.738 23.7171 111.341 21.6555 111.093 21.2432C111.035 21.1696 110.205 21.1107 109.228 21.1107H107.436L107.072 21.5377C105.615 23.2017 102.891 22.3476 102.308 20.0358C102.221 19.7266 102.221 19.4615 102.293 19.4026C102.366 19.3584 104.45 19.329 106.941 19.3437C110.496 19.3437 111.458 19.3143 111.472 19.167C111.603 17.3264 110.729 14.6023 109.636 13.4243C109.025 12.7616 107.961 12.0254 107.436 11.8929C107.203 11.834 106.941 11.7309 106.839 11.6573C106.635 11.4953 103.969 11.3628 103.517 11.4806V11.4806ZM105.79 14.3519C106.446 14.5875 107.203 15.4121 107.32 16.0453C107.495 17.0024 107.509 17.0024 104.799 16.9583C102.366 16.9141 102.352 16.9141 102.308 16.5754C102.25 16.1631 102.76 15.1471 103.197 14.7642C103.823 14.2341 104.916 14.0574 105.79 14.3519V14.3519ZM116.193 11.4806C113.206 12.2021 112.128 13.277 112.113 15.5152C112.113 17.9301 113.308 18.9461 116.848 19.5793C119.281 20.0063 119.981 20.3892 119.952 21.3169C119.937 21.9795 119.485 22.4065 118.582 22.598C117.446 22.8483 116.557 22.5685 115.843 21.7586L115.275 21.1107H113.512C112.084 21.1107 111.749 21.1549 111.749 21.3169C111.749 21.7439 112.332 22.863 112.813 23.4226C113.264 23.9085 113.614 24.1441 114.983 24.8067C115.115 24.8803 115.828 24.9981 116.542 25.0865C117.868 25.2485 120.17 25.1012 120.753 24.8067C120.884 24.7478 121.263 24.5564 121.583 24.4091C122.414 24.0116 123.201 23.1133 123.492 22.2593C123.812 21.2874 123.725 19.9327 123.273 18.9903C122.734 17.8859 121.307 17.0908 119.179 16.7079C116.44 16.222 116.397 16.2073 115.96 15.7803C115.435 15.2354 115.435 15.044 115.96 14.455C116.382 13.9838 116.411 13.9691 117.577 13.9691C118.742 13.9691 118.771 13.9838 119.194 14.455C119.427 14.7201 119.616 15.0293 119.616 15.1471C119.616 15.3238 119.922 15.368 121.438 15.368C123.448 15.368 123.39 15.4121 123.04 14.3667C122.399 12.5113 120.753 11.5689 118.014 11.4658C117.169 11.4364 116.353 11.4364 116.193 11.4806V11.4806ZM96.8153 11.7898C96.1743 12.0107 95.2856 12.7469 95.0087 13.277C94.7319 13.8071 94.4842 13.5862 94.4114 12.7027L94.3385 11.9076H90.6962L90.6525 18.0921C90.6379 21.4936 90.6525 24.4239 90.6962 24.6153C90.769 24.9392 90.8128 24.9392 92.5611 24.9098C93.5664 24.8951 94.3823 24.8067 94.4405 24.7184C94.4988 24.6447 94.5571 23.0839 94.5571 21.258C94.5571 18.3719 94.5862 17.8565 94.8339 17.2086C95.3438 15.8686 96.4365 15.0735 97.8061 15.0735C98.1849 15.0735 98.3451 14.9998 98.3888 14.8084C98.4908 14.3814 98.5054 12.3935 98.418 11.9518C98.3306 11.5984 98.2577 11.5395 97.8643 11.5542C97.6021 11.5689 97.1359 11.672 96.8153 11.7898V11.7898ZM51.9416 12.0107C51.8979 12.1137 51.8833 15.0146 51.8979 18.4602L51.9416 24.7184L53.6753 24.792C54.7243 24.8362 55.4819 24.8067 55.5985 24.7184C55.7588 24.6006 55.8025 23.3489 55.8025 18.3424C55.817 14.9262 55.7733 12.0548 55.7296 11.9812C55.5839 11.7603 52.0144 11.7898 51.9416 12.0107V12.0107Z" fill="#A0A2A7"/>
</svg>
