<svg width="97" height="33" viewBox="0 0 97 33" fill="none" xmlns="http://www.w3.org/2000/svg">
<path d="M1.99556 1.51906L9.89861 1.84384L14.7704 6.28258L39.2374 6.39081L39.1292 1.41083L55.5849 1.51906L55.4767 6.17431L60.5649 6.39081L60.6732 10.0717L65.0036 6.39081L75.2885 6.28258V1.73556L84.0576 1.5191L84.1659 6.17435L90.3368 6.28258L95.1003 10.613L95.2085 25.9861L6.21775 26.2026L1.5625 21.3309L1.99556 1.51906Z" fill="white"/>
<path d="M9.72019 29.5659L5.65609 27.1292L3.18937 24.6653L0.722656 22.2014V0.40271H11.0884L13.5456 2.85856L16.0028 5.31441H27.1169C38.0606 5.31441 38.2317 5.3131 38.276 5.23034C38.3054 5.17532 38.321 4.32629 38.321 2.7745V0.40271H56.8369L56.8482 2.84769L56.8594 5.29267L59.2935 5.31441L61.7276 5.33614L61.7392 6.62927C61.7455 7.34051 61.7646 7.92239 61.7817 7.92239C61.7987 7.92239 62.4006 7.33559 63.1193 6.6184L64.4259 5.31441H69.8976L72.3548 2.85856L74.8121 0.40271H85.1343V2.7745C85.1343 4.32629 85.1499 5.17532 85.1793 5.23034C85.2231 5.31219 85.3024 5.31441 88.1895 5.31441H91.1547L93.5995 7.75952L96.0444 10.2047V26.5528L91.9694 29.2785L87.8944 32.0044L85.1687 32.0035L82.4431 32.0028L82.4304 30.7023C82.4234 29.9871 82.4038 29.388 82.3868 29.371C82.3699 29.3541 81.5168 29.9393 80.4912 30.6715L78.6264 32.0028H73.7027V30.6988C73.7027 29.6811 73.6907 29.3948 73.6481 29.3948C73.618 29.3948 73.0069 29.9816 72.29 30.6988L70.9866 32.0028H62.2488L60.9245 30.678C60.1962 29.9494 59.5851 29.3684 59.5665 29.387C59.5479 29.4056 59.4254 29.9577 59.2944 30.614C59.1633 31.2702 59.0455 31.8511 59.0327 31.9049L59.0094 32.0027H51.3821L50.0787 30.6987C49.3618 29.9815 48.7507 29.3947 48.7206 29.3947C48.678 29.3947 48.666 29.6811 48.666 30.6987V32.0027H44.841C42.7372 32.0027 41.016 31.9969 41.016 31.9898C41.016 31.9214 40.4892 29.3751 40.4713 29.3573C40.4583 29.3441 39.8467 29.9341 39.1124 30.6681L37.7772 32.0028H23.5866L22.282 31.4812C21.5644 31.1943 20.9579 30.9596 20.9342 30.9596C20.908 30.9596 20.891 31.1649 20.891 31.4812V32.0028H13.7843L9.72019 29.5659V29.5659ZM13.7843 21.9186V18.9411L11.3502 18.9194L8.91606 18.8976V13.5078L11.3502 13.4861L13.7843 13.4643V7.50946L11.3502 7.48773L8.91606 7.46599L8.89433 5.03188L8.8726 2.59776H2.91771L2.90675 11.8548L2.89576 21.1119L4.79711 23.0151L6.69845 24.9183L10.2414 24.9071L13.7843 24.896V21.9186ZM36.4202 23.0148L38.3213 21.1118L38.3103 14.3106L38.2993 7.50946L35.3112 7.49829L32.323 7.48712L32.312 13.1924L32.301 18.8976H30.1711L30.1494 13.2036L30.1276 7.50946L27.1395 7.49829L24.1513 7.48712L24.1403 13.1924L24.1293 18.8976H21.9994L21.9777 13.2036L21.956 7.50946L18.9677 7.49829L15.9793 7.48712V24.9177H34.5191L36.4202 23.0148ZM46.471 16.2027V7.50946L43.4827 7.49829L40.4944 7.48712V24.9183L43.4827 24.9072L46.471 24.896V16.2027ZM59.5326 21.9189V18.9201L57.1094 18.9089L54.6861 18.8976V13.5078L57.1094 13.4966L59.5326 13.4853V7.48846L57.1094 7.47721L54.6861 7.46599L54.6644 5.03188L54.6427 2.59776H48.6878L48.6768 11.8558L48.6658 21.1139L50.5674 23.0158L52.469 24.9177H59.5326V21.9189ZM74.7893 21.9185V18.9193H71.2732C68.1071 18.9193 67.7545 18.9125 67.7307 18.8506C67.6962 18.7607 67.6962 13.6446 67.7307 13.5548C67.7545 13.4929 68.1071 13.486 71.2732 13.486H74.7893V7.48764H65.5104L63.6299 9.36812L61.7494 11.2486V21.1567L63.6299 23.0372L65.5104 24.9176H74.7893V21.9185ZM82.9717 19.2127L82.9827 13.5077H87.851L87.8727 19.2018L87.8944 24.8959H93.8493L93.8603 18.0947L93.8713 11.2936L91.9702 9.3906L90.0691 7.48764H86.5638C83.6844 7.48764 83.0499 7.47721 83.0102 7.42931C82.9762 7.38836 82.9584 6.65887 82.9505 4.98432L82.9393 2.59767H76.9844L76.9733 13.7033C76.9671 19.8114 76.9714 24.8335 76.9827 24.8633C76.999 24.906 77.6391 24.9176 79.982 24.9176H82.9607L82.9717 19.2127V19.2127ZM46.471 3.94513V2.59767H40.5161L40.5046 3.90123C40.4982 4.61812 40.5025 5.22952 40.5142 5.25981C40.5311 5.30372 41.1385 5.31267 43.5032 5.30376L46.471 5.29259V3.94513Z" fill="#A0A2A7"/>
</svg>
