<svg width="123" height="25" viewBox="0 0 123 25" fill="none" xmlns="http://www.w3.org/2000/svg">
<path d="M8.0985 24.1766H3.51613V12.6312H0.394531V8.87231H3.51601V6.19756C3.51601 3.02797 4.89664 0.754761 9.46661 0.754761C10.4332 0.754761 11.9506 0.951662 11.9506 0.951662V4.44204H10.3568C8.73282 4.44204 8.09875 4.9413 8.09875 6.32157V8.87231H11.8898L11.5522 12.6312H8.09863L8.0985 24.1766ZM18.6129 8.57192C18.5461 8.57192 18.4774 8.57438 18.4094 8.5761C14.1604 8.5761 12.2163 11.8064 12.2163 16.3919C12.2163 22.1684 14.738 24.4803 18.4426 24.4803C20.5622 24.4803 21.9547 23.5787 22.8011 21.896V24.1782H27.1596V8.87391H22.8011V11.2275C22.11 9.71325 20.6785 8.58986 18.6129 8.57192ZM19.7211 12.1883C21.5057 12.1883 22.5769 13.4464 22.5769 15.5864L22.581 17.7721C22.581 19.2144 21.6963 20.9018 19.7211 20.9018C16.6845 20.9018 16.7656 17.5879 16.7656 16.4842C16.7656 12.7715 18.3835 12.1883 19.7211 12.1883ZM28.9198 16.5269C28.9198 14.6671 28.8317 8.58187 36.6761 8.58187C39.8249 8.58187 41.1397 9.59379 41.1397 9.59379L40.0829 12.9066C40.0829 12.9066 38.7698 12.1757 37.0588 12.1757C34.8672 12.1757 33.4688 13.4598 33.4688 15.719L33.4713 17.3389C33.4713 19.5097 34.8205 20.9588 37.0633 20.9588C38.6221 20.9588 40.0587 20.2211 40.0587 20.2211L41.1129 23.4647C41.1129 23.4647 39.9106 24.483 36.6981 24.483C29.229 24.483 28.9199 19.0234 28.9199 16.5269H28.9198ZM66.6952 8.5761C70.9443 8.5761 72.919 11.8064 72.919 16.3919C72.919 22.1684 70.3972 24.4803 66.6926 24.4803C64.5731 24.4803 63.0063 23.5788 62.1598 21.896V24.1782L57.8562 24.1765V1.2201L62.4256 0.817322V11.0201C63.0851 9.23514 65.2524 8.5761 66.6953 8.5761H66.6952ZM65.4141 12.1883C63.6295 12.1883 62.4256 13.4464 62.4256 15.5864L62.4213 17.7721C62.4186 19.2144 63.2551 20.9018 65.4141 20.9018C68.4507 20.9018 68.3696 17.5879 68.3696 16.4842C68.3696 12.7715 66.7518 12.1883 65.4141 12.1883ZM49.068 8.58876C44.2486 8.58876 41.7042 11.2445 41.7042 15.9639V16.8408C41.7042 22.9662 45.2773 24.5433 49.537 24.5433C53.6775 24.5433 55.5516 23.3728 55.5516 23.3728L54.6965 20.2558C54.6965 20.2558 52.492 21.2038 50.0849 21.2038C47.5894 21.2038 46.5162 20.561 46.2411 18.1372H55.9169V15.6366C55.9169 10.5172 53.0614 8.58863 49.0678 8.58863L49.068 8.58876ZM49.1841 11.7099C50.8523 11.7099 51.9333 12.7438 51.874 15.1417H46.2495C46.3471 12.618 47.5128 11.71 49.1841 11.71V11.7099ZM82.0301 8.56774C77.081 8.56774 74.4755 11.3865 74.4755 16.438C74.4755 23.3689 78.9668 24.4845 82.0384 24.4845C86.535 24.4845 89.5266 22.0377 89.5266 16.5009C89.5266 10.7381 86.1629 8.56774 82.0301 8.56774V8.56774ZM81.9679 12.2008C84.1441 12.2008 85.0064 13.8469 85.0064 15.7207V17.3317C85.0064 19.6016 83.7998 20.9145 81.9596 20.9145C80.2386 20.9145 79.0291 19.6864 79.0291 17.3317V15.7207C79.0291 13.2094 80.4683 12.2008 81.9679 12.2008V12.2008ZM98.6296 8.56774C93.6805 8.56774 91.075 11.3865 91.075 16.438C91.075 23.3689 95.5663 24.4845 98.6379 24.4845C103.134 24.4845 106.126 22.0377 106.126 16.5009C106.126 10.7381 102.762 8.56774 98.6296 8.56774V8.56774ZM98.5674 12.2008C100.744 12.2008 101.606 13.8469 101.606 15.7207V17.3317C101.606 19.6016 100.399 20.9145 98.5591 20.9145C96.8381 20.9145 95.6285 19.6864 95.6285 17.3317V15.7207C95.6285 13.2094 97.0678 12.2008 98.5674 12.2008V12.2008ZM107.853 24.1766V1.2201L112.435 0.817322V16.2042L116.982 8.87231H121.822L117.079 16.466L122.004 24.1766H117.151L112.435 16.6897V24.1766H107.853Z" fill="#A0A2A7"/>
</svg>
