<svg width="111" height="37" viewBox="0 0 111 37" fill="none" xmlns="http://www.w3.org/2000/svg">
<path d="M13.596 0H14.5776C17.9858 0.0748812 21.3383 1.46018 23.7462 3.91254C22.8571 4.82984 21.9495 5.7097 21.079 6.62699C19.7269 5.39145 18.0969 4.43671 16.3187 4.09975C13.6886 3.53814 10.8546 4.04359 8.65048 5.55993C6.24257 7.15116 4.61261 9.84688 4.26068 12.7298C3.87171 15.5753 4.66817 18.5705 6.50189 20.7795C8.26151 22.9324 10.9473 24.2802 13.7256 24.3738C16.3187 24.5236 19.023 23.7186 20.9123 21.884C22.3941 20.5923 23.0794 18.6267 23.3017 16.7172C20.227 16.7172 17.1522 16.736 14.0775 16.7172V12.8609H27.0247C27.6915 16.998 26.7283 21.6594 23.6165 24.6172C21.542 26.7139 18.6711 27.9494 15.7445 28.1928C12.9106 28.4736 9.98409 27.9307 7.46505 26.5454C4.44591 24.9167 2.038 22.1648 0.852568 18.9262C-0.258774 15.9497 -0.277296 12.58 0.759956 9.5848C1.7046 6.85163 3.51979 4.43671 5.85361 2.75189C8.09481 1.08578 10.8176 0.168483 13.596 0Z" fill="#A0A2A7"/>
<path d="M87.8711 0.97345H91.8349V27.706C90.5198 27.706 89.1862 27.7247 87.8711 27.6873C87.8896 18.7952 87.8711 9.8843 87.8711 0.97345V0.97345Z" fill="#A0A2A7"/>
<path d="M35.842 10.2401C38.2869 9.77206 40.9356 10.2962 42.9546 11.7751C44.7883 13.0855 46.0663 15.1448 46.4553 17.3912C46.9554 19.9933 46.3256 22.8387 44.6586 24.898C42.862 27.2005 39.9169 28.4361 37.0459 28.2489C34.4158 28.0991 31.8597 26.77 30.3038 24.5984C28.5442 22.2023 28.1181 18.9075 29.0813 16.0995C30.0445 13.0855 32.7673 10.783 35.842 10.2401V10.2401ZM36.3976 13.7969C35.3974 14.059 34.4713 14.6393 33.8045 15.463C32.0078 17.6345 32.119 21.1726 34.1009 23.1944C35.2307 24.3551 36.9348 24.898 38.5092 24.5797C39.9725 24.3176 41.2505 23.3255 41.9544 22.0151C43.1768 19.7874 42.8249 16.7172 40.9542 14.9763C39.7502 13.8531 37.9906 13.3851 36.3976 13.7969Z" fill="#A0A2A7"/>
<path d="M55.4729 10.24C58.2698 9.69706 61.3259 10.4833 63.419 12.4677C66.8271 15.5565 67.1975 21.3411 64.2895 24.898C62.5299 27.1444 59.6775 28.38 56.8621 28.2489C54.1763 28.174 51.5276 26.8262 49.9347 24.5985C48.138 22.1461 47.749 18.7764 48.7678 15.9122C49.7865 12.9918 52.4537 10.7641 55.4729 10.24V10.24ZM56.0285 13.7968C55.0283 14.0589 54.1022 14.6392 53.4354 15.4442C51.6573 17.5783 51.7314 21.0603 53.6392 23.1008C54.769 24.3176 56.5287 24.9167 58.1586 24.5797C59.6034 24.2989 60.8999 23.3255 61.6038 22.015C62.8077 19.7686 62.4558 16.6985 60.5665 14.9575C59.3626 13.8343 57.6029 13.385 56.0285 13.7968Z" fill="#A0A2A7"/>
<path d="M72.1266 11.3258C74.2567 9.97793 77.0906 9.60352 79.3874 10.7642C80.1097 11.0824 80.7024 11.6253 81.2766 12.1682C81.2952 11.6628 81.2766 11.1386 81.2952 10.6144C82.5362 10.6331 83.7772 10.6144 85.0367 10.6331V27.1444C85.0182 29.6342 84.3884 32.2738 82.6103 34.0896C80.6654 36.0927 77.6833 36.7105 74.9975 36.2986C72.1266 35.8681 69.6261 33.7527 68.5147 31.0757C69.6261 30.5328 70.793 30.1022 71.9414 29.5968C72.5896 31.1318 73.9047 32.4423 75.5532 32.7418C77.2017 33.0413 79.1095 32.6295 80.1838 31.2442C81.3322 29.8214 81.3322 27.8745 81.2766 26.1335C80.4246 26.9759 79.4429 27.7248 78.2575 28.0056C75.6829 28.7356 72.849 27.8371 70.8671 26.0774C68.8666 24.3177 67.6812 21.6032 67.7923 18.9075C67.8479 15.8561 69.552 12.917 72.1266 11.3258V11.3258ZM75.9607 13.722C74.8308 13.9092 73.7751 14.5457 73.0527 15.4255C71.3116 17.5222 71.3116 20.8731 73.0712 22.9324C74.0714 24.1492 75.6829 24.8231 77.2388 24.6546C78.702 24.5049 80.0542 23.5688 80.7765 22.2772C81.999 20.0869 81.7953 17.1104 80.1468 15.2009C79.128 14.0215 77.4981 13.4412 75.9607 13.722V13.722Z" fill="#A0A2A7"/>
<path d="M96.5935 12.2806C98.8162 10.1839 102.243 9.47251 105.095 10.577C107.8 11.6066 109.522 14.2087 110.393 16.8857C106.373 18.5706 102.373 20.2367 98.3532 21.9215C98.9088 22.9886 99.7609 23.962 100.909 24.3551C102.521 24.9355 104.447 24.7295 105.799 23.6438C106.336 23.2319 106.762 22.689 107.17 22.1649C108.189 22.8575 109.207 23.5314 110.226 24.2241C108.781 26.4144 106.355 27.9494 103.743 28.1928C100.854 28.5485 97.779 27.4253 95.9082 25.1414C92.8335 21.5471 93.1298 15.5192 96.5935 12.2806V12.2806ZM98.5754 15.7438C97.9457 16.6611 97.6863 17.7843 97.7049 18.8888C100.391 17.7656 103.076 16.6424 105.762 15.5004C105.318 14.4521 104.243 13.8156 103.15 13.6471C101.391 13.3289 99.5571 14.2836 98.5754 15.7438V15.7438Z" fill="#A0A2A7"/>
</svg>
