<svg width="119" height="28" viewBox="0 0 119 28" fill="none" xmlns="http://www.w3.org/2000/svg">
<path d="M19.7496 27.188L11.9913 27.0446C9.47929 26.9946 6.96109 27.0945 4.49843 26.5767C0.751977 25.8032 0.486577 22.0105 0.208834 18.8291C-0.173835 14.3565 -0.0257049 9.80276 0.696428 5.36756C1.10379 2.8786 2.70853 1.39396 5.1897 1.23178C13.5652 0.645405 21.9963 0.714023 30.3533 0.988494C31.2359 1.01345 32.1246 1.15068 32.9949 1.30663C37.2907 2.06767 37.3956 6.36564 37.6733 9.98367C37.9511 13.6391 37.8338 17.3133 37.303 20.9438C36.8771 23.9505 36.0624 26.4707 32.6246 26.7139C28.3165 27.0321 24.1071 27.2878 19.7867 27.2067C19.7867 27.188 19.762 27.188 19.7496 27.188V27.188ZM15.1885 19.5777C18.435 17.6938 21.6198 15.8411 24.8478 13.9697C21.5951 12.0859 18.4165 10.2332 15.1885 8.36179V19.5777Z" fill="#A0A2A7"/>
<path d="M99.9029 23.7697C99.7547 24.381 99.6251 24.8613 99.4955 25.3728H96.4588V1.69946H100.002V10.4327C100.187 10.1957 100.279 10.0959 100.36 9.98982C100.964 9.14769 101.748 8.59874 102.761 8.38665C104.371 8.06851 105.748 8.78588 106.235 10.3516C106.55 11.3248 106.754 12.3665 106.779 13.3833C106.828 15.9971 106.791 18.6046 106.698 21.2183C106.661 22.0168 106.421 22.834 106.118 23.5825C105.124 26.0528 101.878 26.4271 100.267 24.2874C100.168 24.1564 100.076 24.0129 99.9029 23.7697V23.7697ZM100.076 17.2571V21.5863C100.076 22.2912 100.446 22.7217 101.143 22.8839C101.829 23.046 102.384 22.7778 102.662 22.1353C102.779 21.8671 102.896 21.5863 102.902 21.3056C102.97 18.6607 103.032 16.0158 103.051 13.3646C103.051 12.8718 102.933 12.3603 102.785 11.88C102.507 11.0129 101.742 10.7571 100.989 11.2624C100.421 11.6491 100.076 12.1981 100.076 12.9279V17.2571ZM90.4472 8.7235H94.1567V25.3853H91.262C91.157 24.7553 91.0521 24.1065 90.9287 23.3455C90.7312 23.6387 90.6139 23.8258 90.4905 24.0129C89.5276 25.4165 88.1636 25.8968 86.5527 25.6411C85.1763 25.4165 84.3492 24.3436 84.1641 22.5844C84.1085 22.0604 84.0838 21.5302 84.0838 21.0062C84.0715 17.1074 84.0838 13.1962 84.0838 9.2974V8.71102H87.8365V9.39097C87.8365 13.1588 87.8241 16.9203 87.8488 20.6881C87.8488 21.2245 87.9044 21.7797 87.9969 22.3162C88.1019 22.8651 88.4969 23.0648 89.0277 23.0273C89.8856 22.9587 90.4781 22.3162 90.4781 21.4553V9.45959C90.4472 9.21631 90.4472 8.99174 90.4472 8.7235V8.7235ZM64.9072 8.71102H68.6352V9.41592C68.6352 13.165 68.6228 16.9078 68.6475 20.6444C68.6475 21.1809 68.6969 21.7361 68.808 22.2601C68.9499 22.8776 69.3079 23.0772 69.9189 22.9961C70.7645 22.8776 71.2768 22.285 71.283 21.4179V9.48454V8.73598H74.9924V25.3853H72.11C72.0051 24.7678 71.9002 24.1315 71.7644 23.3268C71.5792 23.6075 71.4743 23.7697 71.3694 23.9381C70.4065 25.3666 69.0549 25.8906 67.4069 25.6348C66.0861 25.4352 65.2776 24.4496 65.0307 22.834C64.9628 22.3287 64.9134 21.8296 64.9134 21.3243C64.9011 17.2759 64.901 13.2087 64.901 9.16016L64.9072 8.71102ZM62.9939 17.6065C62.9815 18.1679 62.9445 18.7293 62.9136 19.2907C62.7717 20.975 62.7038 23.3642 61.3583 24.5931C60.5004 25.3666 59.4141 25.6473 58.2908 25.6847C57.7908 25.6972 57.2847 25.6972 56.7848 25.6286C54.4209 25.2668 53.3223 24.2126 52.9272 21.5863C52.4767 18.5547 52.4396 15.4731 52.9766 12.4414C53.5321 9.30364 55.4454 8.19327 58.4204 8.39912C61.1978 8.59874 62.4384 10.439 62.7655 13.0589C62.9445 14.5623 63.0309 16.0844 62.9939 17.6065V17.6065ZM59.2166 17.0326C59.2166 15.9659 59.2413 14.8929 59.2042 13.8262C59.1795 13.2087 59.0993 12.5849 58.9697 11.9735C58.8216 11.2686 58.3772 10.9318 57.8217 10.9442C57.2785 10.9567 56.8959 11.2936 56.6984 11.9486C56.6305 12.1919 56.5564 12.4414 56.5564 12.6847C56.5564 14.3565 56.5441 16.0345 56.5317 17.7063C56.5194 19.2658 56.3219 20.9002 56.8095 22.3911C56.9576 22.8464 57.3403 23.096 57.8402 23.096C58.3278 23.096 58.6487 22.8527 58.8277 22.416C58.9697 22.0792 59.0931 21.7111 59.0931 21.3493C59.1363 19.9146 59.2166 18.4736 59.2166 17.0326ZM47.4835 13.8948C47.8106 12.2792 48.1192 10.701 48.4587 9.1165C48.8845 7.10161 49.3598 5.08672 49.7795 3.06559C49.8844 2.57279 50.0819 2.45427 50.5448 2.46674C51.5385 2.50417 52.5507 2.47922 53.6123 2.47922C53.2667 3.76426 52.9272 4.98691 52.5939 6.19085C51.5385 9.97111 50.4831 13.7638 49.44 17.5566C49.3598 17.8498 49.3227 18.1679 49.3227 18.4798C49.3104 20.5508 49.3227 22.6156 49.3227 24.6867V25.3604H45.6997C45.6874 25.1732 45.6627 24.9861 45.6627 24.7989C45.6627 23.6262 45.5701 22.4472 45.6751 21.2869C45.9405 18.4985 45.064 15.9347 44.3542 13.3397C43.4161 9.90873 42.4656 6.46533 41.5274 3.0344C41.4781 2.87222 41.4595 2.69755 41.4102 2.49793H45.1072C45.8849 6.28443 46.6688 10.0709 47.4835 13.8948ZM118.37 18.2428H112.124C112.191 19.5091 112.216 20.713 112.346 21.9045C112.438 22.7341 112.889 23.0897 113.599 23.096C114.339 23.1084 114.771 22.7341 114.944 21.9107C115 21.6425 115.037 21.3743 115.061 21.0998C115.086 20.8565 115.098 20.5945 115.117 20.2452C116.172 20.3013 117.203 20.3637 118.222 20.4074C118.814 22.1852 117.746 24.4683 115.95 25.1732C114.537 25.7346 113.086 25.7346 111.642 25.3042C110.574 24.9861 109.778 24.2999 109.42 23.2457C109.087 22.2601 108.772 21.2308 108.704 20.2015C108.519 17.6626 108.451 15.0988 108.834 12.5537C108.902 12.1295 109.019 11.724 109.149 11.3123C109.667 9.61554 110.797 8.57379 112.543 8.39912C113.494 8.30555 114.475 8.34298 115.413 8.50517C116.932 8.77341 117.74 9.87754 118.092 11.3248C118.252 12.0047 118.37 12.7034 118.394 13.3958C118.401 14.9865 118.37 16.5647 118.37 18.2428ZM114.821 16.0532C114.821 14.7994 114.833 13.6204 114.808 12.4351C114.808 12.1544 114.703 11.8612 114.599 11.593C114.389 11.069 113.95 10.9255 113.426 10.9255C112.901 10.9255 112.568 11.1938 112.438 11.6741C112.043 13.1151 112.173 14.5873 112.185 16.0657C113.13 16.0532 113.988 16.0532 114.821 16.0532V16.0532Z" fill="#A0A2A7"/>
<path d="M77.856 5.53613H74.1836V2.52939H85.1451V5.51742H81.4975V25.3607H77.8621L77.856 5.53613Z" fill="#A0A2A7"/>
</svg>
