<svg width="1564" height="450" viewBox="0 0 1564 450" fill="none" xmlns="http://www.w3.org/2000/svg">
<path d="M504.72 317H455.472L373.104 192.296V317H323.856V114.824H373.104L455.472 240.104V114.824H504.72V317ZM613.571 319.304C597.827 319.304 583.619 315.944 570.947 309.224C558.467 302.504 548.579 292.904 541.283 280.424C534.179 267.944 530.627 253.352 530.627 236.648C530.627 220.136 534.275 205.64 541.57 193.16C548.867 180.488 558.851 170.792 571.523 164.072C584.195 157.352 598.403 153.992 614.147 153.992C629.891 153.992 644.099 157.352 656.771 164.072C669.443 170.792 679.427 180.488 686.723 193.16C694.019 205.64 697.667 220.136 697.667 236.648C697.667 253.16 693.923 267.752 686.435 280.424C679.139 292.904 669.059 302.504 656.195 309.224C643.523 315.944 629.315 319.304 613.571 319.304ZM613.571 276.68C622.979 276.68 630.947 273.224 637.475 266.312C644.195 259.4 647.555 249.512 647.555 236.648C647.555 223.784 644.291 213.896 637.763 206.984C631.427 200.072 623.555 196.616 614.147 196.616C604.547 196.616 596.579 200.072 590.243 206.984C583.907 213.704 580.739 223.592 580.739 236.648C580.739 249.512 583.811 259.4 589.955 266.312C596.291 273.224 604.163 276.68 613.571 276.68ZM813.362 275.24V317H788.306C770.45 317 756.53 312.68 746.546 304.04C736.562 295.208 731.57 280.904 731.57 261.128V197.192H711.986V156.296H731.57V117.128H780.818V156.296H813.074V197.192H780.818V261.704C780.818 266.504 781.97 269.96 784.274 272.072C786.578 274.184 790.418 275.24 795.794 275.24H813.362ZM831.002 236.36C831.002 219.848 834.074 205.352 840.218 192.872C846.554 180.392 855.098 170.792 865.85 164.072C876.602 157.352 888.602 153.992 901.85 153.992C913.178 153.992 923.066 156.296 931.514 160.904C940.154 165.512 946.778 171.56 951.386 179.048V156.296H1000.63V317H951.386V294.248C946.586 301.736 939.866 307.784 931.226 312.392C922.778 317 912.89 319.304 901.562 319.304C888.506 319.304 876.602 315.944 865.85 309.224C855.098 302.312 846.554 292.616 840.218 280.136C834.074 267.464 831.002 252.872 831.002 236.36ZM951.386 236.648C951.386 224.36 947.93 214.664 941.018 207.56C934.298 200.456 926.042 196.904 916.25 196.904C906.458 196.904 898.106 200.456 891.194 207.56C884.474 214.472 881.114 224.072 881.114 236.36C881.114 248.648 884.474 258.44 891.194 265.736C898.106 272.84 906.458 276.392 916.25 276.392C926.042 276.392 934.298 272.84 941.018 265.736C947.93 258.632 951.386 248.936 951.386 236.648ZM1085.51 179.048C1090.12 171.56 1096.74 165.512 1105.38 160.904C1114.02 156.296 1123.91 153.992 1135.05 153.992C1148.29 153.992 1160.29 157.352 1171.05 164.072C1181.8 170.792 1190.25 180.392 1196.39 192.872C1202.73 205.352 1205.89 219.848 1205.89 236.36C1205.89 252.872 1202.73 267.464 1196.39 280.136C1190.25 292.616 1181.8 302.312 1171.05 309.224C1160.29 315.944 1148.29 319.304 1135.05 319.304C1123.72 319.304 1113.83 317.096 1105.38 312.68C1096.93 308.072 1090.31 302.024 1085.51 294.536V317H1036.26V103.88H1085.51V179.048ZM1155.78 236.36C1155.78 224.072 1152.33 214.472 1145.41 207.56C1138.69 200.456 1130.34 196.904 1120.36 196.904C1110.57 196.904 1102.21 200.456 1095.3 207.56C1088.58 214.664 1085.22 224.36 1085.22 236.648C1085.22 248.936 1088.58 258.632 1095.3 265.736C1102.21 272.84 1110.57 276.392 1120.36 276.392C1130.15 276.392 1138.5 272.84 1145.41 265.736C1152.33 258.44 1155.78 248.648 1155.78 236.36ZM1280.98 103.88V317H1231.73V103.88H1280.98ZM1468.16 234.056C1468.16 238.664 1467.87 243.464 1467.29 248.456H1355.84C1356.6 258.44 1359.77 266.12 1365.34 271.496C1371.1 276.68 1378.11 279.272 1386.36 279.272C1398.65 279.272 1407.2 274.088 1412 263.72H1464.41C1461.72 274.28 1456.83 283.784 1449.72 292.232C1442.81 300.68 1434.08 307.304 1423.52 312.104C1412.96 316.904 1401.15 319.304 1388.09 319.304C1372.35 319.304 1358.33 315.944 1346.04 309.224C1333.76 302.504 1324.16 292.904 1317.24 280.424C1310.33 267.944 1306.88 253.352 1306.88 236.648C1306.88 219.944 1310.24 205.352 1316.96 192.872C1323.87 180.392 1333.47 170.792 1345.76 164.072C1358.04 157.352 1372.16 153.992 1388.09 153.992C1403.64 153.992 1417.47 157.256 1429.56 163.784C1441.66 170.312 1451.07 179.624 1457.79 191.72C1464.7 203.816 1468.16 217.928 1468.16 234.056ZM1417.76 221.096C1417.76 212.648 1414.88 205.928 1409.12 200.936C1403.36 195.944 1396.16 193.448 1387.52 193.448C1379.26 193.448 1372.25 195.848 1366.49 200.648C1360.92 205.448 1357.47 212.264 1356.12 221.096H1417.76Z" fill="#030303"/>
<path d="M1517.18 319.304C1508.54 319.304 1501.43 316.808 1495.87 311.816C1490.49 306.632 1487.8 300.296 1487.8 292.808C1487.8 285.128 1490.49 278.696 1495.87 273.512C1501.43 268.328 1508.54 265.736 1517.18 265.736C1525.63 265.736 1532.54 268.328 1537.91 273.512C1543.48 278.696 1546.27 285.128 1546.27 292.808C1546.27 300.296 1543.48 306.632 1537.91 311.816C1532.54 316.808 1525.63 319.304 1517.18 319.304Z" fill="#F8EC8B"/>
<path d="M179.5 79.6575L17.6645 91.027C15.2051 91.0491 12.7757 91.5534 10.5288 92.509C8.27719 93.4756 6.26119 94.878 4.60774 96.6299C2.95429 98.3817 1.69802 100.443 0.922093 102.684C0.143862 104.927 -0.144788 107.298 0.0676663 109.652V279.198C0.319379 287.836 3.76482 296.107 9.78976 302.535L47.8931 349.848C50.5788 353.323 54.2506 355.989 58.472 357.524C62.6911 359.061 67.2819 359.406 71.7019 358.519L259.586 347.459C275.428 346.442 280 339.364 280 327.441V136.638C280 130.599 277.552 128.785 270.601 123.653L270.278 123.41L269.031 122.592L217.026 87.7533C204.186 79.1266 199.336 77.9764 179.5 79.6575ZM75.8817 133.607H75.466C60.4787 134.514 56.9917 134.713 48.3781 127.989L26.2319 111.134C23.9226 108.922 25.0542 106.289 30.6889 105.714L186.22 94.8316C190.667 94.252 195.191 94.5838 199.493 95.8048C203.798 97.0236 207.782 99.105 211.183 101.91L237.925 120.535C238.987 121.088 241.897 124.361 238.41 124.361L77.8446 133.386L75.8817 133.607ZM58.4004 325.76V163.867C58.4004 156.789 60.7097 153.537 67.4297 152.962L252.173 142.632C258.408 142.167 261.225 145.884 261.225 152.962V313.838C261.225 320.827 260.14 326.888 249.841 327.441L73.3415 336.754C62.5802 337.683 58.4004 334.431 58.4004 325.76Z" fill="#222222"/>
<path d="M128.048 164.398L209.058 253.673H176.728L192.893 319.655L111.906 238.145H144.236L128.048 164.398Z" fill="#222222"/>
</svg>
